{"asset":{"generator":"3D Builder","version":"2.0"},"scene":0,"scenes":[{"nodes":[0]}],"nodes":[{"children":[1,2,3,4,5,6]},{"mesh":0,"matrix":[1.0000004768371582,0,0,0,0,-5.9604701618809486E-8,-1.0000003576278687,0,0,0.39999911189079285,-2.3841758789444611E-8,0,-0.10000009834766388,-0.0019558940548449755,-3.8259866386169961E-8,1]},{"mesh":1,"matrix":[1.0000004768371582,0,0,0,0,1.1920934639420011E-7,1.0000003576278687,0,0,-1.0000003576278687,1.1920934639420011E-7,0,-4.5418737215641158E-8,0.014044097624719143,-5.0120835481948234E-8,1]},{"mesh":2,"matrix":[1.0000004768371582,0,0,0,0,1.1920934639420011E-7,1.0000003576278687,0,0,-1.9999982118606567,2.384183943604512E-7,0,-0.1214999333024025,0.023088209331035614,-0.12248466908931732,1]},{"mesh":3,"matrix":[1.0000004768371582,0,0,0,0,1.1920934639420011E-7,1.0000003576278687,0,0,-1.9999982118606567,2.384183943604512E-7,0,-0.1214999333024025,0.023088222369551659,-0.017297549173235893,1]},{"mesh":4,"matrix":[1.0000004768371582,0,0,0,0,1.1920934639420011E-7,1.0000003576278687,0,0,-1.9999982118606567,2.384183943604512E-7,0,-0.018500033766031265,0.023088222369551659,-0.017297549173235893,1]},{"mesh":5,"matrix":[1.0000004768371582,0,0,0,0,1.1920934639420011E-7,1.0000003576278687,0,0,-1.9999982118606567,2.384183943604512E-7,0,-0.018500033766031265,0.023088209331035614,-0.12248466908931732,1]}],"meshes":[{"primitives":[{"attributes":{"POSITION":0},"mode":4,"indices":1,"material":0}]},{"primitives":[{"attributes":{"POSITION":2},"mode":4,"indices":3,"material":1}]},{"primitives":[{"attributes":{"POSITION":4},"mode":4,"indices":5,"material":0}]},{"primitives":[{"attributes":{"POSITION":6},"mode":4,"indices":7,"material":0}]},{"primitives":[{"attributes":{"POSITION":8},"mode":4,"indices":9,"material":0}]},{"primitives":[{"attributes":{"POSITION":10},"mode":4,"indices":11,"material":0}]}],"materials":[{"name":"Turquoise","pbrMetallicRoughness":{"baseColorFactor":[0,0.3515326976776123,0.80695247650146484,1],"metallicFactor":0,"roughnessFactor":1},"alphaMode":"OPAQUE"},{"name":"Green","pbrMetallicRoughness":{"baseColorFactor":[0.015208514407277107,0.49693304300308228,0.072271861135959625,1],"metallicFactor":0,"roughnessFactor":1},"alphaMode":"OPAQUE"}],"accessors":[{"bufferView":0,"byteOffset":0,"count":1293,"componentType":5126,"type":"VEC3","min":[0.074000000953674316,-0.026000000536441803,0.020000001415610313],"max":[0.12600000202655792,0.026000000536441803,0.040000002831220627]},{"bufferView":1,"byteOffset":0,"count":7776,"componentType":5125,"type":"SCALAR"},{"bufferView":2,"byteOffset":0,"count":55,"componentType":5126,"type":"VEC3","min":[-0.069999903440475464,-0.069999903440475464,0.0015440500574186444],"max":[0.070000000298023224,0.070000000298023224,0.011544100008904934]},{"bufferView":3,"byteOffset":0,"count":396,"componentType":5125,"type":"SCALAR"},{"bufferView":4,"byteOffset":0,"count":1266,"componentType":5126,"type":"VEC3","min":[0.061500001698732376,0.061500001698732376,0.0065441303886473179],"max":[0.07850000262260437,0.07850000262260437,0.011544100008904934]},{"bufferView":5,"byteOffset":0,"count":7620,"componentType":5125,"type":"SCALAR"},{"bufferView":6,"byteOffset":0,"count":1266,"componentType":5126,"type":"VEC3","min":[0.061500001698732376,0.061500001698732376,0.0065441303886473179],"max":[0.07850000262260437,0.07850000262260437,0.011544100008904934]},{"bufferView":7,"byteOffset":0,"count":7620,"componentType":5125,"type":"SCALAR"},{"bufferView":8,"byteOffset":0,"count":1266,"componentType":5126,"type":"VEC3","min":[0.061500001698732376,0.061500001698732376,0.0065441303886473179],"max":[0.07850000262260437,0.07850000262260437,0.011544100008904934]},{"bufferView":9,"byteOffset":0,"count":7620,"componentType":5125,"type":"SCALAR"},{"bufferView":10,"byteOffset":0,"count":1266,"componentType":5126,"type":"VEC3","min":[0.061500001698732376,0.061500001698732376,0.0065441303886473179],"max":[0.07850000262260437,0.07850000262260437,0.011544100008904934]},{"bufferView":11,"byteOffset":0,"count":7620,"componentType":5125,"type":"SCALAR"}],"bufferViews":[{"buffer":0,"byteOffset":0,"byteLength":15516,"byteStride":12,"target":34962},{"buffer":0,"byteOffset":15516,"byteLength":31104,"target":34963},{"buffer":0,"byteOffset":46620,"byteLength":660,"byteStride":12,"target":34962},{"buffer":0,"byteOffset":47280,"byteLength":1584,"target":34963},{"buffer":0,"byteOffset":48864,"byteLength":15192,"byteStride":12,"target":34962},{"buffer":0,"byteOffset":64056,"byteLength":30480,"target":34963},{"buffer":0,"byteOffset":94536,"byteLength":15192,"byteStride":12,"target":34962},{"buffer":0,"byteOffset":109728,"byteLength":30480,"target":34963},{"buffer":0,"byteOffset":140208,"byteLength":15192,"byteStride":12,"target":34962},{"buffer":0,"byteOffset":155400,"byteLength":30480,"target":34963},{"buffer":0,"byteOffset":185880,"byteLength":15192,"byteStride":12,"target":34962},{"buffer":0,"byteOffset":201072,"byteLength":30480,"target":34963}],"buffers":[{"byteLength":231552,"uri":"bottom 2.bin"}]}